<svg xmlns:inkscape="http://www.inkscape.org/namespaces/inkscape" xmlns:sodipodi="http://sodipodi.sourceforge.net/DTD/sodipodi-0.dtd" xmlns="http://www.w3.org/2000/svg" xmlns:svg="http://www.w3.org/2000/svg" version="1.1" id="Layer_1" x="0px" y="0px" enable-background="new 0 0 1024 1024" xml:space="preserve" sodipodi:docname="MJJB_1.svg" inkscape:version="1.2.2 (732a01da63, 2022-12-09)" viewBox="323.75 8 295.25 787.34"><defs id="defs195"/><sodipodi:namedview id="namedview193" pagecolor="#ffffff" bordercolor="#000000" borderopacity="0.25" inkscape:showpageshadow="2" inkscape:pageopacity="0.0" inkscape:pagecheckerboard="0" inkscape:deskcolor="#d1d1d1" showgrid="false" inkscape:zoom="0.53" inkscape:cx="475.4717" inkscape:cy="499.0566" inkscape:window-width="1600" inkscape:window-height="838" inkscape:window-x="-8" inkscape:window-y="-8" inkscape:window-maximized="1" inkscape:current-layer="Layer_1"/>
<path fill="#000000" opacity="1" stroke="none" d="m 420.83163,609.22783 c -18.80675,-5.06946 -38.00324,-8.02052 -57.28611,-10.49422 -0.0774,-1.22787 0.6582,-1.95111 1.15593,-2.72762 3.95429,-6.16731 7.75303,-12.39835 10.7168,-18.97338 2.56377,-5.68735 3.93926,-11.62209 4.90311,-17.63815 0.10213,-0.63722 0.25352,-1.27073 0.3131,-1.91051 0.0741,-0.80079 0.55184,-1.09101 1.46408,-1.12124 8.40668,-0.27877 16.66445,-1.54745 24.88817,-2.93043 12.35127,-2.0775 24.5082,-4.83392 36.57147,-7.91299 29.83605,-7.61604 58.61106,-17.67893 87.37929,-27.74746 16.76374,-5.86737 33.3891,-12.02286 50.13529,-17.92638 10.25795,-3.61742 20.7533,-6.6863 31.45558,-9.21405 0.58666,-0.13936 1.15969,-0.41867 1.74312,-0.2264 0.35434,0.38078 0.0988,0.69375 -9.7e-4,0.9659 -4.24844,9.62288 -6.64378,19.65527 -8.97696,29.70139 -0.20504,0.87958 -0.32032,1.75809 -1.73633,1.68032 -9.01177,-0.49599 -17.27433,2.24879 -25.61379,4.48314 -23.26638,6.23351 -46.13361,13.45594 -69.00461,20.66474 -17.935,5.65305 -35.84001,11.37336 -53.64233,17.32471 -8.11193,2.71179 -16.26722,5.3456 -24.12712,8.58064 -0.77752,0.31986 -1.6265,0.56665 -2.13279,1.22739 0.15074,0.529 0.67099,0.62903 1.12859,0.77935 19.54175,6.40963 39.03277,12.9456 59.46925,17.07806 7.92972,1.60342 15.92386,2.87029 24.02028,3.669 0.8691,0.0864 1.60064,-0.15788 2.36569,-0.37948 4.56191,-1.32111 9.19224,-1.58411 13.87762,-0.58476 10.32977,2.20541 15.29703,8.91451 16.65041,17.84236 0.65185,4.29959 -0.0996,8.56309 -0.28722,12.84057 -0.0879,1.99781 -0.003,3.99901 0.53924,5.90865 0.99497,3.38283 3.79451,5.46439 7.23711,5.72714 3.79734,0.28982 6.95219,-1.24979 8.82728,-4.39537 0.63339,-1.06246 1.08725,-2.20332 1.67027,-3.40556 1.18386,0.70406 0.79009,1.4648 0.60945,2.14326 -1.54157,5.79502 -6.24931,9.1288 -13.18764,8.946 -6.80228,-0.17886 -12.96498,-1.95544 -17.55036,-6.5628 -3.47078,-3.48758 -4.83492,-7.7459 -5.36461,-12.16798 -0.56752,-4.74285 -0.78069,-9.51635 -1.1796,-14.27454 -0.14369,-1.71918 -0.51242,-3.40881 -1.43548,-4.96496 -1.97484,-3.3291 -5.22489,-4.80025 -9.54731,-4.44624 -1.12345,0.0912 -1.57775,0.75257 -2.1731,1.36432 -7.28017,7.48276 -11.04743,16.39296 -14.06833,25.57971 -1.85592,5.64579 -3.08152,11.47941 -2.9365,17.29624 0.18149,7.28357 1.59768,14.5158 4.4041,21.46984 2.87279,7.11852 5.95216,14.15351 11.6959,20.04275 0.95991,0.98431 1.49527,2.426 3.51087,2.31788 2.71277,-0.14525 5.39401,-0.23509 7.37244,-2.21196 1.96488,-1.96284 2.85577,-4.2869 3.1173,-6.78 0.35793,-3.41769 0.61343,-6.84609 0.78598,-10.27469 0.17144,-3.3953 0.7776,-6.71151 1.87417,-9.97577 2.71434,-8.08834 9.77251,-11.87127 19.04463,-12.95936 1.62054,-0.18987 3.2486,-0.16808 4.87199,3.4e-4 6.49444,0.69221 9.86634,4.54414 10.9743,9.94555 0.0529,0.25967 9.7e-4,0.53837 -0.34714,0.74749 -0.87984,0.13702 -0.87737,-0.50422 -1.06047,-0.98609 -0.467,-1.23008 -1.0196,-2.42335 -1.96233,-3.45697 -2.40312,-2.63421 -5.80502,-3.74929 -9.0824,-2.9696 -3.35741,0.7985 -5.89172,3.52263 -6.3862,6.71251 -0.59124,3.81402 -0.0666,7.61518 0.202,11.40425 0.40104,5.65603 -0.48264,11.06679 -3.79958,15.99518 -3.47529,5.16461 -9.12277,7.6279 -15.82232,8.51722 -3.73203,0.4953 -7.3692,0.0167 -10.91592,-0.98703 -2.64512,-0.7518 -5.23188,-0.10159 -7.80145,0.2099 -21.59632,2.61403 -42.14701,8.43173 -62.44445,15.01193 -4.68781,1.5197 -9.38251,3.02391 -14.06033,4.56579 -1.03821,0.34215 -2.15172,0.5741 -3.13661,1.24988 0.62841,0.68752 1.52624,0.94942 2.3478,1.27548 9.84462,3.90731 19.97412,7.22539 30.09956,10.54306 34.7651,11.39111 69.62046,22.57428 104.89481,32.77023 9.19752,2.65854 18.42325,5.25292 27.89526,7.14744 2.85456,0.57105 5.72148,0.60718 8.59189,0.48882 1.87809,-0.0774 2.41344,0.59992 2.74205,2.07365 2.05425,9.21793 4.36395,18.38657 7.9445,27.28284 0.39773,0.98831 1.1518,1.89827 1.12228,3.02314 -0.84779,0.30276 -1.5315,-0.0446 -2.23123,-0.21023 -18.59285,-4.41686 -36.29778,-10.84815 -54.00616,-17.30287 -32.52233,-11.85441 -65.16014,-23.47117 -98.6582,-33.20247 -16.61676,-4.82716 -33.47642,-8.95236 -50.68712,-11.91018 -8.57742,-1.47406 -17.17259,-3.03791 -25.99297,-3.09855 -1.30725,-5.7e-4 -1.98299,-0.34873 -2.18316,-1.62845 -1.19164,-7.61759 -2.92987,-15.12149 -6.58707,-22.21512 -2.93979,-5.70205 -6.29981,-11.21843 -9.76802,-16.69143 -0.32189,-0.50871 -0.77596,-0.98345 -0.80707,-1.90071 23.66122,-3.22734 47.39355,-6.47658 69.73694,-14.43016 22.27989,-7.93091 43.5765,-17.44129 63.23522,-29.46078 -0.22357,-0.99541 -1.11761,-1.27914 -1.80444,-1.6887 -14.07904,-8.39814 -28.9577,-15.60613 -44.47871,-21.85686 -9.53068,-3.838 -19.1006,-7.5935 -29.29335,-10.39852 z" id="path190" style="stroke-width:0.348179"/>
<g id="g214" transform="matrix(0,-0.26936199,0.37587584,0,311.63386,759.03121)"><path fill="#000000" opacity="1" stroke="none" d="m 1183.8389,749.26901 c -0.3368,10.5802 -0.2862,10.99671 -11.7169,12.38343 -36.8907,4.47546 -70.3048,18.55865 -102.4591,36.30133 -5.5001,3.03497 -11.0521,5.97595 -17.5665,9.49286 -10.2621,-64.27161 -20.5086,-127.65174 -45.4188,-187.32422 -24.74785,-59.28376 -54.43925,-115.95331 -92.6679,-169.49561 53.14305,-4.91385 102.0933,-17.84082 143.1038,-52.92639 3.907,41.66077 13.7645,81.26807 25.7223,120.42572 11.9107,39.00366 27.1572,76.77844 41.7683,115.51233 3.5759,-3.73236 4.9033,-7.70502 6.5435,-11.43457 18.7802,-42.70319 34.8955,-86.46149 51.3897,-130.06927 18.7319,-49.5239 37.1549,-99.1634 54.8609,-149.06281 16.475,-46.4303 33.3788,-92.72513 46.168,-140.37634 2.698,-10.05268 4.5848,-20.17389 3.6182,-30.55414 -0.5256,-5.64572 1.8478,-7.42197 6.9848,-8.38927 27.3215,-5.14458 54.4516,-11.13968 80.88,-19.93483 3.9447,-1.31274 7.8515,-2.73916 11.7894,-4.07303 0.2382,-0.0807 0.5966,0.19344 1.2978,0.44614 -1.2273,7.63061 -3.8315,14.95105 -6.0926,22.34697 -13.4637,44.03862 -31.7279,86.2072 -49.6158,128.55626 -38.6203,91.43268 -77.1485,182.92459 -107.7797,277.46127 -14.6807,45.30866 -27.024,91.24048 -35.2459,138.20899 -2.4389,13.93194 -4.7227,27.88549 -5.5635,42.50518 z" id="path197"/><path fill="#000000" opacity="1" stroke="none" d="m 1503.5624,304.1677 c -14.3235,-33.77338 -29.2208,-66.89759 -41.6028,-101.05698 -7.0378,-19.41583 -13.5201,-39.01314 -19.1563,-58.88452 -0.3583,-1.2634 -0.4731,-2.59587 -0.6799,-3.77477 1.1718,-1.30839 2.3079,-0.65985 3.3441,-0.25992 29.1857,11.26323 59.7091,17.42 90.2215,23.59746 7.251,1.46805 7.6029,1.3257 7.2273,8.37633 -1.0374,19.47118 5.4267,37.46724 10.9639,55.54933 15.8004,51.59729 34.1849,102.32099 52.5724,153.03903 18.842,51.97159 38.1763,103.75986 57.9628,155.37717 11.8007,30.78479 23.4808,61.62976 37.3033,91.59521 0.8231,1.78443 1.3934,3.7533 3.856,5.7967 29.7477,-76.59809 59.5459,-152.68164 67.221,-236.95053 41.2383,36.01956 90.1111,49.45504 143.5887,53.97488 -75.7681,108.03931 -124.6647,225.05554 -137.309,356.05981 -3.4078,0.56556 -5.0262,-1.28863 -6.8237,-2.28173 -19.6988,-10.883 -39.5829,-21.41706 -60.6083,-29.5307 -18.5791,-7.1698 -37.9669,-11.1756 -57.7266,-13.38068 -4.1119,-0.45886 -7.2429,-1.12152 -7.3588,-6.5202 -0.6363,-29.62 -7.0402,-58.41394 -13.4918,-87.11982 -17.7955,-79.18048 -45.1276,-155.28918 -75.0988,-230.52597 -17.6893,-44.4053 -35.5105,-88.7554 -54.405,-133.0801 z" id="path199"/></g><g id="g230" transform="matrix(0,-0.04505224,0.05833162,0,312.10437,401.8209)"><path fill="#000000" opacity="1" stroke="none" d="m 922.30591,533.1272 c -9.43927,52.61908 -35.66809,94.9837 -75.56055,129.24664 -43.38141,37.25958 -93.86371,60.91119 -148.28125,77.02765 -39.41864,11.67444 -79.70727,18.78113 -120.53766,22.62274 -47.81561,4.49878 -95.73034,5.41193 -143.72583,2.41657 C 372.2742,760.57611 311.58957,750.28845 252.66216,730.57886 209.34375,716.09003 167.91142,697.59222 130.32402,671.27747 97.249588,648.12225 69.345421,620.16565 50.54734,583.94721 37.018253,557.88074 29.629122,530.17328 27.481867,500.85718 24.705585,462.953 30.104961,426.44556 45.026581,391.51743 c 16.512337,-38.65162 43.139114,-69.37226 76.200059,-94.75699 38.77049,-29.76856 82.2624,-50.33083 128.59651,-65.23136 37.02329,-11.90628 74.98068,-19.60971 113.48563,-24.6118 27.5726,-3.58189 55.29406,-5.38811 83.09436,-6.46783 19.33218,-0.75087 38.65139,-0.99904 57.96176,-0.5833 61.12442,1.31602 121.5657,8.06393 180.51981,24.9792 57.99499,16.64008 111.55096,42.06392 157.28582,82.16109 37.93225,33.25635 64.76709,73.6008 76.5246,123.17044 8.04248,33.90714 9.50519,68.09283 3.61078,102.95032 M 572.42462,246.2245 c -21.39996,-4.38351 -43.01593,-7.17152 -64.8436,-7.7773 -19.81402,-0.54986 -39.63388,-0.59967 -59.45074,0.73111 -34.89056,2.34301 -69.0769,8.0573 -101.92371,20.42945 -65.24734,24.57617 -108.09677,70.09921 -127.4761,137.22424 -11.00719,38.12601 -13.79204,77.12872 -11.74506,116.64731 1.44782,27.95154 6.08988,55.19531 16.03943,81.41131 15.78923,41.60279 42.94025,73.56946 81.52915,95.8158 35.59701,20.52155 74.56729,30.2121 114.87673,34.7749 34.12098,3.86225 68.38895,4.68238 102.71265,1.46418 31.69525,-2.97168 62.55634,-9.17249 91.935,-21.66529 39.46149,-16.78027 71.1737,-42.74103 93.3808,-79.76446 21.41241,-35.69867 30.37658,-75.00653 33.15075,-115.99601 1.4972,-22.12051 1,-44.25384 -0.80657,-66.37741 -2.2721,-27.82449 -7.13721,-55.06445 -16.67328,-81.38293 -14.23279,-39.28131 -39.58173,-68.88828 -76.4032,-88.81369 -23.19849,-12.5535 -47.76727,-21.07402 -74.30225,-26.72121 z" id="path216"/><path fill="#000000" opacity="1" stroke="none" d="m 794.81177,751.96844 c -50.6496,20.55402 -102.9961,33.0177 -156.67975,40.0553 -36.18256,4.74335 -72.5484,6.93103 -109.06097,7.53907 -29.86286,0.49725 -59.62327,-0.52839 -89.30289,-3.38624 -63.65656,-6.12933 -125.36078,-20.63891 -184.85662,-44.25677 -2.59469,-1.03003 -2.58343,-1.05841 -4.17941,-3.80182 2.22948,-1.22772 4.15309,-0.0257 6.07051,0.68781 39.04801,14.52996 79.48682,23.22058 120.64972,28.98144 53.4332,7.47833 107.16516,9.21076 160.98935,7.79724 61.27222,-1.60901 121.78864,-9.25384 180.92957,-25.92761 56.58642,-15.95361 109.57281,-39.65338 157.15576,-74.57764 36.56952,-26.84057 66.73083,-59.2193 85.44275,-101.15924 11.82287,-26.49908 17.49133,-54.32721 17.8341,-83.35064 0.49482,-41.89295 -7.83661,-81.72107 -27.23059,-119.00229 -18.78412,-36.10898 -45.27777,-65.69977 -77.43475,-90.35056 -36.92773,-28.3078 -78.40491,-47.69302 -122.4632,-61.94238 -3.34332,-1.0813 -7.13836,-1.93418 -4.41101,-7.29915 11.82758,2.47702 23.24231,6.03683 34.58423,9.76709 48.27136,15.87602 92.97821,38.39445 131.4054,72.12697 39.97955,35.09518 69.56189,76.99005 82.40472,129.40051 7.69991,31.4227 8.54551,63.14118 3.96871,95.15442 -6.47463,45.28735 -24.99935,85.02509 -54.3918,119.80676 -23.89911,28.28125 -52.62287,50.83698 -84.16962,69.97644 -21.40906,12.98896 -43.72595,24.14484 -67.25421,33.76129 z" id="path218"/><path fill="#000000" opacity="1" stroke="none" d="m 311.11896,657.87915 c -25.28641,-25.43988 -39.30695,-56.26825 -46.29734,-90.62714 -5.94415,-29.21661 -7.08984,-58.70565 -5.4035,-88.44833 1.55283,-27.38788 5.52567,-54.27121 14.13818,-80.34189 19.30817,-58.44742 57.95389,-98.12857 116.01697,-118.72027 24.6308,-8.73517 50.11005,-13.24137 76.13791,-15.2157 43.59473,-3.30686 86.84534,-1.52979 129.57843,8.18142 21.08173,4.7909 41.17249,12.22745 59.44501,24.05396 1.53668,0.99457 3.05737,2.01782 4.53375,3.09845 0.35034,0.25641 0.4917,0.79834 0.69208,1.14481 -0.52142,1.24365 -1.36511,0.83651 -2.11694,0.59762 -33.23127,-10.55737 -67.11243,-18.27588 -101.70282,-22.6445 -42.89978,-5.41803 -85.7071,-5.60617 -128.07706,4.32632 -28.07449,6.58133 -53.95252,17.96851 -76.36633,36.55155 -22.3534,18.5329 -37.91156,41.81509 -48.40699,68.66983 -9.16031,23.43854 -13.87258,47.84943 -16.12741,72.84787 -2.20602,24.45727 -2.4418,48.90204 0.22214,73.29687 5.5033,50.39557 22.37198,95.84443 59.35733,132.07197 19.52252,19.12255 42.49045,33.12616 67.6134,43.69201 1.49775,0.62994 3.22428,0.89099 4.45224,2.7619 -2.80551,2.88483 -5.55734,5.39386 -10.16049,3.62342 -33.50336,-12.88605 -65.12451,-28.99726 -91.88586,-53.46216 -1.84372,-1.68549 -3.5979,-3.46893 -5.6427,-5.45801 z" id="path220"/></g><path fill="#000000" opacity="1" stroke="none" d="m 615.3322,262.90005 c 0.15767,1.76545 0.53288,3.35797 0.39918,4.96483 -0.49393,0.34618 -0.77172,-0.0493 -1.01393,-0.33182 -6.10619,-7.08405 -13.77849,-10.80526 -21.10704,-15.21239 -15.5222,-9.33477 -31.32574,-17.87654 -47.39918,-25.62829 -14.351,-6.92134 -29.06567,-12.30272 -44.12954,-16.18929 -2.87897,-0.74291 -5.76737,-1.42625 -8.6516,-2.13483 -0.22223,-0.0534 -0.52444,-0.23449 -0.65814,-0.11792 -1.24804,1.0791 -1.99491,-0.13762 -2.72564,-0.98611 -4.56725,-5.30731 -10.21176,-8.32114 -15.71141,-11.65662 -12.76439,-7.74131 -25.73223,-14.91296 -38.80882,-21.78965 -20.89617,-10.98942 -42.37626,-19.54427 -64.72139,-24.56537 -0.94873,-0.21334 -1.96843,-0.23337 -2.80119,-0.90871 -0.0419,-0.63863 0.30091,-0.87614 0.56402,-1.17008 9.59962,-10.73248 18.84857,-21.92616 27.84797,-33.43438 12.32564,-15.760644 24.53234,-31.668314 36.07651,-48.338264 10.09872,-14.5826 19.55594,-29.77281 27.43626,-46.41089 1.50264,-3.1722 2.86335,-6.43847 4.12789,-9.7629302 0.43881,-1.15381 0.96363,-1.42882 1.92459,-1.09542 8.28073,2.8751402 16.65097,2.5761402 25.05963,1.08374 1.31496,-0.23343 2.64266,-0.64178 4.1933,-0.40388 -0.42349,2.2347502 -0.81966,4.3062702 -1.20801,6.3800402 -2.11662,11.29661 -3.64408,22.71806 -4.7757,34.2328 -1.51407,15.40734 -2.17803,30.87475 -2.54757,46.38401 -0.31872,13.379404 0.20498,26.720624 0.61269,40.071824 0.22612,7.40895 0.47953,14.82112 0.90666,22.21489 0.4531,7.84169 0.87527,15.68704 1.50942,23.51446 0.61075,7.54064 1.22714,15.07889 1.97933,22.59988 0.0666,0.66346 0.008,1.37018 0.51889,1.83991 0.62449,-8.7e-4 0.98158,-0.56806 1.37137,-1.00919 10.05125,-11.3752 19.74747,-23.20839 29.20591,-35.34953 7.71652,-9.9053 15.30914,-19.95803 22.80736,-30.12067 12.18234,-16.51108 23.7782,-33.61472 33.65621,-52.436814 3.11012,-5.9259 6.02434,-11.99688 8.44647,-18.41233 0.47156,-1.24996 0.98424,-1.61466 2.08815,-1.23753 7.32397,2.50216 14.75607,2.62499 22.24178,1.43691 2.22956,-0.3539 4.46893,-0.6096 6.95337,-0.94393 -0.49536,2.62848 -0.95148,5.01617 -1.39527,7.40677 -2.3648,12.74184 -3.99127,25.633434 -5.10955,38.635234 -1.08503,12.61261 -1.63343,25.25795 -1.99576,37.93331 -0.31903,11.1674 -0.0461,22.31499 0.18857,33.46463 0.20433,9.67412 0.57297,19.34922 1.08675,29.00594 0.82912,15.57843 1.82542,31.14288 3.42938,46.6347 0.0569,0.56087 0.0686,1.12944 0.12804,1.84395 m -49.89693,-55.52632 c 6.44172,2.8757 12.94607,5.50317 19.53866,7.79173 1.11567,0.38739 1.53153,0.13064 1.59551,-1.41665 0.22586,-5.48069 0.55315,-10.9551 0.84957,-16.43112 0.41842,-7.73327 0.86467,-15.46459 1.26022,-23.19987 0.3375,-6.60645 0.63796,-13.21637 0.9227,-19.82686 0.34997,-8.1377 0.70452,-16.27587 0.98537,-24.41742 0.22633,-6.56087 0.35839,-13.12707 0.50589,-19.69195 0.0352,-1.66492 0.17111,-3.36554 -0.43665,-4.96535 -3.40443,1.94118 -58.05255,78.80975 -59.58564,83.8499 10.87882,7.53414 22.4688,13.02757 34.36437,18.30759 M 441.09052,80.062896 c -2.70017,3.82004 -5.40651,7.63345 -8.09862,11.46248 -8.37505,11.912774 -16.76615,23.809634 -24.73049,36.161024 -1.18981,1.84579 -1.14925,1.96386 0.51143,3.07009 0.24012,0.16003 0.48142,0.31671 0.72342,0.47044 16.46095,10.45234 33.79727,18.03034 51.48098,24.46491 0.50356,0.18297 1.02136,0.47895 1.55195,0.15843 1.68865,-7.65628 5.62686,-106.944174 4.27987,-110.184504 -1.48938,1.35146 -2.67548,3.05244 -3.92123,4.65123 -7.4644,9.57969 -14.51588,19.63236 -21.79731,29.7459 z" id="path364" style="stroke-width:0.304168"/></svg>