<?xml version="1.0" encoding="UTF-8" standalone="no"?>
<svg
   version="1.1"
   id="svg185"
   xml:space="preserve"
   sodipodi:docname="RUBY rrrbb RL.svg"
   inkscape:version="1.2.2 (732a01da63, 2022-12-09)"
   viewBox="1.65 1.2 194.89 63.97"
   xmlns:inkscape="http://www.inkscape.org/namespaces/inkscape"
   xmlns:sodipodi="http://sodipodi.sourceforge.net/DTD/sodipodi-0.dtd"
   xmlns="http://www.w3.org/2000/svg"
   xmlns:svg="http://www.w3.org/2000/svg"><sodipodi:namedview
     id="namedview15"
     pagecolor="#ffffff"
     bordercolor="#000000"
     borderopacity="0.25"
     inkscape:showpageshadow="2"
     inkscape:pageopacity="0.0"
     inkscape:pagecheckerboard="0"
     inkscape:deskcolor="#d1d1d1"
     inkscape:document-units="mm"
     showgrid="false"
     inkscape:zoom="4.4585776"
     inkscape:cx="82.986107"
     inkscape:cy="16.933652"
     inkscape:window-width="1600"
     inkscape:window-height="837"
     inkscape:window-x="-4"
     inkscape:window-y="-4"
     inkscape:window-maximized="1"
     inkscape:current-layer="svg185" /><defs
     id="defs182" /><g
     id="layer1"
     transform="matrix(1.2901518,0,0,1.2901518,-95.683692,-85.853229)"><path
       style="opacity:0;fill:#ff0000;stroke-width:0.5869"
       d="m 90.738003,114.84996 c -6.794458,-1.46461 -14.96709,-8.3658 -14.96709,-12.63878 0,-2.442457 2.194357,-3.661813 3.966293,-2.20399 0.432177,0.35558 1.557459,1.74659 2.50061,3.09101 4.892929,6.97498 10.009335,10.5675 15.7418,11.0532 1.264922,0.10726 3.057604,0.30076 3.983644,0.43025 l 1.6838,0.23535 -1.6838,0.28056 c -2.701956,0.45032 -8.589646,0.32047 -11.225257,-0.2476 z"
       id="path4975" /><path
       style="opacity:0;fill:#ff0000;stroke-width:0.5869"
       d="m 90.738003,114.84996 c -6.794458,-1.46461 -14.96709,-8.3658 -14.96709,-12.63878 0,-2.442457 2.194357,-3.661813 3.966293,-2.20399 0.432177,0.35558 1.557459,1.74659 2.50061,3.09101 4.892929,6.97498 10.009335,10.5675 15.7418,11.0532 1.264922,0.10726 3.057604,0.30076 3.983644,0.43025 l 1.6838,0.23535 -1.6838,0.28056 c -2.701956,0.45032 -8.589646,0.32047 -11.225257,-0.2476 z"
       id="path4977" /><path
       style="opacity:0;fill:#ff0000;stroke-width:0.5869"
       d="m 90.738003,114.84996 c -6.794458,-1.46461 -14.96709,-8.3658 -14.96709,-12.63878 0,-2.442457 2.194357,-3.661813 3.966293,-2.20399 0.432177,0.35558 1.557459,1.74659 2.50061,3.09101 4.892929,6.97498 10.009335,10.5675 15.7418,11.0532 1.264922,0.10726 3.057604,0.30076 3.983644,0.43025 l 1.6838,0.23535 -1.6838,0.28056 c -2.701956,0.45032 -8.589646,0.32047 -11.225257,-0.2476 z"
       id="path4979" /><path
       style="opacity:0;fill:#ff0000;stroke-width:0.0733622"
       d="m 94.830572,115.50231 c -1.340325,-0.0408 -2.72027,-0.14608 -3.390989,-0.25906 -1.561196,-0.26311 -3.978103,-1.07421 -5.706206,-1.91481 -2.700452,-1.31352 -5.299023,-3.39935 -7.836721,-6.2904 -1.410738,-1.60702 -2.26233,-3.1468 -2.430322,-4.39417 -0.130067,-0.96559 0.241096,-2.12568 0.884479,-2.764354 0.479376,-0.475901 0.955152,-0.652353 1.758711,-0.652353 0.909673,0 1.407611,0.215187 2.108759,0.911417 0.557583,0.55355 0.765041,0.82397 1.866556,2.43281 0.457932,0.66886 1.101639,1.57385 1.430429,2.01117 4.070419,5.41393 8.477631,8.45732 13.607159,9.39643 1.064147,0.19481 1.829972,0.26362 3.441683,0.30924 1.51565,0.0431 2.17707,0.0904 2.67812,0.19132 0.68656,0.13887 0.82154,0.38559 0.30732,0.56187 -0.99692,0.34175 -5.242712,0.56611 -8.718978,0.46089 z"
       id="path4981" /><path
       style="opacity:1;fill:#ff0000;stroke-width:0.293452"
       d="m 93.07661,115.32924 c -1.527589,-0.1119 -2.477836,-0.31311 -4.273108,-0.90459 -3.864377,-1.27329 -6.654845,-3.07116 -9.682983,-6.23862 -3.263078,-3.41318 -4.155428,-5.42228 -3.272199,-7.36732 0.804229,-1.770894 2.805578,-2.055615 4.284711,-0.60955 0.324071,0.31686 1.369445,1.6802 2.323048,3.02964 1.911706,2.70524 4.779503,5.81757 6.678506,7.24823 3.427452,2.58182 7.583875,3.91548 12.208465,3.9171 0.79084,2.6e-4 1.67484,0.0936 1.96448,0.20689 l 0.52664,0.20636 -0.44834,0.17197 c -0.53715,0.20598 -5.193251,0.54225 -7.035172,0.50808 -0.720274,-0.0131 -2.19362,-0.0893 -3.274048,-0.16819 z"
       id="path5017" /><path
       style="opacity:1;fill:#ff0000;stroke-width:0.293452"
       d="M 94.370116,111.00941 C 89.337135,107.55462 86.126855,104.11119 83.90331,99.782432 80.576533,93.305855 79.971342,84.21854 82.662676,81.153272 c 0.697235,-0.794098 1.520619,-1.172869 2.54966,-1.172869 0.597224,0 0.902832,0.134619 1.471056,0.647977 1.204579,1.088265 1.359004,2.177822 0.876019,6.180764 -0.357443,2.962504 -0.358786,7.939629 -0.0022,10.13491 0.525197,3.238226 1.715074,6.252146 3.606505,9.135196 0.472545,0.72031 1.938278,2.38927 3.257192,3.70865 1.318895,1.31949 2.39804,2.43502 2.39804,2.479 0,0.29281 -0.75325,-0.0941 -2.448286,-1.25749 z"
       id="path5019" /><path
       style="opacity:1;fill:#000000;stroke-width:0.293452"
       d="m 91.904314,103.98695 c -0.502214,-0.87948 -1.835782,-6.509426 -2.207646,-9.320062 -0.31791,-2.402796 -0.122352,-7.535935 0.375586,-9.859416 1.211701,-5.653765 4.397617,-11.241633 8.708756,-15.274458 1.69178,-1.582536 2.46463,-1.948387 4.30482,-2.037734 1.27241,-0.06178 1.58946,-0.01433 2.11572,0.316801 0.68593,0.431694 1.33553,1.659372 1.3403,2.533265 0.006,1.512759 -0.24887,1.866508 -4.26799,5.873776 -5.301084,5.285368 -7.238885,7.924452 -8.900238,12.121174 -1.601589,4.045791 -1.987726,7.158863 -1.517145,12.231254 0.286014,3.08289 0.296776,3.85131 0.04789,3.4154 z"
       id="path5021" /><path
       style="opacity:1;fill:#ff0000;stroke-width:0.293452"
       d="m 91.752171,103.62629 c -0.408523,-1.03953 -0.912525,-2.94864 -1.519501,-5.755598 -0.588251,-2.720346 -0.611701,-2.988671 -0.60694,-6.945602 0.0033,-3.539046 0.063,-4.383119 0.419486,-6.022084 1.262127,-5.803495 4.387549,-11.302452 8.735794,-15.369992 1.69178,-1.582536 2.46463,-1.948387 4.30482,-2.037734 1.26011,-0.06122 1.59178,-0.01285 2.09713,0.305595 0.71621,0.451121 1.36444,1.635496 1.36301,2.490233 -0.002,1.583392 -0.247,1.929567 -4.00955,5.681068 -4.920415,4.906074 -6.592739,7.000133 -8.227147,10.301901 -2.400229,4.848809 -3.048633,9.049773 -2.372682,15.372243 0.250927,2.34702 0.195151,2.94586 -0.18442,1.97997 z"
       id="path5023" /><path
       style="opacity:1;fill:#000000;stroke-width:0.293452"
       d="m 94.503542,93.731427 c 0.430536,-1.964125 2.800655,-7.307037 4.526867,-10.204974 1.559651,-2.618268 2.779081,-4.225797 4.801261,-6.329156 4.39179,-4.568257 9.50624,-7.437548 15.90808,-8.924606 1.81278,-0.421099 2.70773,-0.523271 4.67423,-0.5337 2.1633,-0.01148 2.51728,0.03267 3.20226,0.399122 2.39149,1.279354 3.32949,3.404133 2.26907,5.139668 -0.9686,1.58534 -1.76698,1.868191 -7.32607,2.595539 -4.98831,0.652684 -7.71547,1.221635 -10.86725,2.26719 -6.53193,2.166804 -11.5023,6.43675 -15.466536,13.287154 -0.651443,1.125653 -1.333029,2.230802 -1.514668,2.45583 l -0.330279,0.409169 z"
       id="path5025" /><path
       style="opacity:1;fill:#000000;stroke-width:1.1091"
       d="m 534.92628,347.21709 c -1.36118,-0.51335 -8.36154,-3.9401 -15.55635,-7.615 -12.6612,-6.46698 -29.96313,-13.74283 -39.76607,-16.72253 -13.20812,-4.01474 -40.99075,-5.17748 -54.76702,-2.29209 -11.79388,2.47019 -22.49211,6.33443 -34.83228,12.58156 -6.39765,3.23877 -11.96612,5.87604 -12.37437,5.86059 -1.62918,-0.0616 6.87409,-6.89259 16.22829,-13.03674 27.27219,-17.91329 42.76667,-24.30488 67.88225,-28.00194 11.13455,-1.63902 20.16236,-1.71759 31.25325,-0.27198 14.87785,1.93921 27.69682,5.5784 40.66738,11.54509 18.47073,8.49687 26.73476,19.98045 22.18531,30.82843 -1.55593,3.71007 -3.01719,5.263 -6.4247,6.82773 -3.36108,1.54341 -10.78711,1.6955 -14.49569,0.29688 z"
       id="path5027"
       transform="scale(0.26458333)" /></g><text
     xml:space="preserve"
     style="font-size:9.87778px;font-family:Audiowide;-inkscape-font-specification:'Audiowide, Normal';white-space:pre;inline-size:337.446;fill:#241c1c;stroke-width:0.414999"
     x="40.004101"
     y="147.35687"
     id="text564"
     transform="matrix(1.937431,0,0,1.937431,-42.736826,-225.33077)"><tspan
       x="40.004101"
       y="147.35687"
       id="tspan297"><tspan
         style="fill:#000000;stroke-width:0.415"
         id="tspan295">RUBY LACE</tspan></tspan></text></svg>
