<?xml version="1.0" encoding="UTF-8" standalone="no"?>
<svg
   version="1.1"
   id="svg185"
   xml:space="preserve"
   sodipodi:docname="RUBY rrrbb.svg"
   inkscape:version="1.2.2 (732a01da63, 2022-12-09)"
   viewBox="1.65 1.2 194.89 63.97"
   xmlns:inkscape="http://www.inkscape.org/namespaces/inkscape"
   xmlns:sodipodi="http://sodipodi.sourceforge.net/DTD/sodipodi-0.dtd"
   xmlns="http://www.w3.org/2000/svg"
   xmlns:svg="http://www.w3.org/2000/svg"><sodipodi:namedview
     id="namedview15"
     pagecolor="#ffffff"
     bordercolor="#000000"
     borderopacity="0.25"
     inkscape:showpageshadow="2"
     inkscape:pageopacity="0.0"
     inkscape:pagecheckerboard="0"
     inkscape:deskcolor="#d1d1d1"
     inkscape:document-units="mm"
     showgrid="false"
     inkscape:zoom="3.5"
     inkscape:cx="76.571429"
     inkscape:cy="15.857143"
     inkscape:window-width="1600"
     inkscape:window-height="838"
     inkscape:window-x="-8"
     inkscape:window-y="-8"
     inkscape:window-maximized="1"
     inkscape:current-layer="text564" /><defs
     id="defs182" /><g
     id="layer1"
     transform="matrix(1.2901518,0,0,1.2901518,-95.683692,-85.853229)"><path
       style="opacity:0;fill:#ff0000;stroke-width:0.5869"
       d="m 90.738003,114.84996 c -6.794458,-1.46461 -14.96709,-8.3658 -14.96709,-12.63878 0,-2.442457 2.194357,-3.661813 3.966293,-2.20399 0.432177,0.35558 1.557459,1.74659 2.50061,3.09101 4.892929,6.97498 10.009335,10.5675 15.7418,11.0532 1.264922,0.10726 3.057604,0.30076 3.983644,0.43025 l 1.6838,0.23535 -1.6838,0.28056 c -2.701956,0.45032 -8.589646,0.32047 -11.225257,-0.2476 z"
       id="path4975" /><path
       style="opacity:0;fill:#ff0000;stroke-width:0.5869"
       d="m 90.738003,114.84996 c -6.794458,-1.46461 -14.96709,-8.3658 -14.96709,-12.63878 0,-2.442457 2.194357,-3.661813 3.966293,-2.20399 0.432177,0.35558 1.557459,1.74659 2.50061,3.09101 4.892929,6.97498 10.009335,10.5675 15.7418,11.0532 1.264922,0.10726 3.057604,0.30076 3.983644,0.43025 l 1.6838,0.23535 -1.6838,0.28056 c -2.701956,0.45032 -8.589646,0.32047 -11.225257,-0.2476 z"
       id="path4977" /><path
       style="opacity:0;fill:#ff0000;stroke-width:0.5869"
       d="m 90.738003,114.84996 c -6.794458,-1.46461 -14.96709,-8.3658 -14.96709,-12.63878 0,-2.442457 2.194357,-3.661813 3.966293,-2.20399 0.432177,0.35558 1.557459,1.74659 2.50061,3.09101 4.892929,6.97498 10.009335,10.5675 15.7418,11.0532 1.264922,0.10726 3.057604,0.30076 3.983644,0.43025 l 1.6838,0.23535 -1.6838,0.28056 c -2.701956,0.45032 -8.589646,0.32047 -11.225257,-0.2476 z"
       id="path4979" /><path
       style="opacity:0;fill:#ff0000;stroke-width:0.0733622"
       d="m 94.830572,115.50231 c -1.340325,-0.0408 -2.72027,-0.14608 -3.390989,-0.25906 -1.561196,-0.26311 -3.978103,-1.07421 -5.706206,-1.91481 -2.700452,-1.31352 -5.299023,-3.39935 -7.836721,-6.2904 -1.410738,-1.60702 -2.26233,-3.1468 -2.430322,-4.39417 -0.130067,-0.96559 0.241096,-2.12568 0.884479,-2.764354 0.479376,-0.475901 0.955152,-0.652353 1.758711,-0.652353 0.909673,0 1.407611,0.215187 2.108759,0.911417 0.557583,0.55355 0.765041,0.82397 1.866556,2.43281 0.457932,0.66886 1.101639,1.57385 1.430429,2.01117 4.070419,5.41393 8.477631,8.45732 13.607159,9.39643 1.064147,0.19481 1.829972,0.26362 3.441683,0.30924 1.51565,0.0431 2.17707,0.0904 2.67812,0.19132 0.68656,0.13887 0.82154,0.38559 0.30732,0.56187 -0.99692,0.34175 -5.242712,0.56611 -8.718978,0.46089 z"
       id="path4981" /><path
       style="opacity:1;fill:#ff0000;stroke-width:0.293452"
       d="m 93.07661,115.32924 c -1.527589,-0.1119 -2.477836,-0.31311 -4.273108,-0.90459 -3.864377,-1.27329 -6.654845,-3.07116 -9.682983,-6.23862 -3.263078,-3.41318 -4.155428,-5.42228 -3.272199,-7.36732 0.804229,-1.770894 2.805578,-2.055615 4.284711,-0.60955 0.324071,0.31686 1.369445,1.6802 2.323048,3.02964 1.911706,2.70524 4.779503,5.81757 6.678506,7.24823 3.427452,2.58182 7.583875,3.91548 12.208465,3.9171 0.79084,2.6e-4 1.67484,0.0936 1.96448,0.20689 l 0.52664,0.20636 -0.44834,0.17197 c -0.53715,0.20598 -5.193251,0.54225 -7.035172,0.50808 -0.720274,-0.0131 -2.19362,-0.0893 -3.274048,-0.16819 z"
       id="path5017" /><path
       style="opacity:1;fill:#ff0000;stroke-width:0.293452"
       d="M 94.370116,111.00941 C 89.337135,107.55462 86.126855,104.11119 83.90331,99.782432 80.576533,93.305855 79.971342,84.21854 82.662676,81.153272 c 0.697235,-0.794098 1.520619,-1.172869 2.54966,-1.172869 0.597224,0 0.902832,0.134619 1.471056,0.647977 1.204579,1.088265 1.359004,2.177822 0.876019,6.180764 -0.357443,2.962504 -0.358786,7.939629 -0.0022,10.13491 0.525197,3.238226 1.715074,6.252146 3.606505,9.135196 0.472545,0.72031 1.938278,2.38927 3.257192,3.70865 1.318895,1.31949 2.39804,2.43502 2.39804,2.479 0,0.29281 -0.75325,-0.0941 -2.448286,-1.25749 z"
       id="path5019" /><path
       style="opacity:1;fill:#000000;stroke-width:0.293452"
       d="m 91.904314,103.98695 c -0.502214,-0.87948 -1.835782,-6.509426 -2.207646,-9.320062 -0.31791,-2.402796 -0.122352,-7.535935 0.375586,-9.859416 1.211701,-5.653765 4.397617,-11.241633 8.708756,-15.274458 1.69178,-1.582536 2.46463,-1.948387 4.30482,-2.037734 1.27241,-0.06178 1.58946,-0.01433 2.11572,0.316801 0.68593,0.431694 1.33553,1.659372 1.3403,2.533265 0.006,1.512759 -0.24887,1.866508 -4.26799,5.873776 -5.301084,5.285368 -7.238885,7.924452 -8.900238,12.121174 -1.601589,4.045791 -1.987726,7.158863 -1.517145,12.231254 0.286014,3.08289 0.296776,3.85131 0.04789,3.4154 z"
       id="path5021" /><path
       style="opacity:1;fill:#ff0000;stroke-width:0.293452"
       d="m 91.752171,103.62629 c -0.408523,-1.03953 -0.912525,-2.94864 -1.519501,-5.755598 -0.588251,-2.720346 -0.611701,-2.988671 -0.60694,-6.945602 0.0033,-3.539046 0.063,-4.383119 0.419486,-6.022084 1.262127,-5.803495 4.387549,-11.302452 8.735794,-15.369992 1.69178,-1.582536 2.46463,-1.948387 4.30482,-2.037734 1.26011,-0.06122 1.59178,-0.01285 2.09713,0.305595 0.71621,0.451121 1.36444,1.635496 1.36301,2.490233 -0.002,1.583392 -0.247,1.929567 -4.00955,5.681068 -4.920415,4.906074 -6.592739,7.000133 -8.227147,10.301901 -2.400229,4.848809 -3.048633,9.049773 -2.372682,15.372243 0.250927,2.34702 0.195151,2.94586 -0.18442,1.97997 z"
       id="path5023" /><path
       style="opacity:1;fill:#000000;stroke-width:0.293452"
       d="m 94.503542,93.731427 c 0.430536,-1.964125 2.800655,-7.307037 4.526867,-10.204974 1.559651,-2.618268 2.779081,-4.225797 4.801261,-6.329156 4.39179,-4.568257 9.50624,-7.437548 15.90808,-8.924606 1.81278,-0.421099 2.70773,-0.523271 4.67423,-0.5337 2.1633,-0.01148 2.51728,0.03267 3.20226,0.399122 2.39149,1.279354 3.32949,3.404133 2.26907,5.139668 -0.9686,1.58534 -1.76698,1.868191 -7.32607,2.595539 -4.98831,0.652684 -7.71547,1.221635 -10.86725,2.26719 -6.53193,2.166804 -11.5023,6.43675 -15.466536,13.287154 -0.651443,1.125653 -1.333029,2.230802 -1.514668,2.45583 l -0.330279,0.409169 z"
       id="path5025" /><path
       style="opacity:1;fill:#000000;stroke-width:1.1091"
       d="m 534.92628,347.21709 c -1.36118,-0.51335 -8.36154,-3.9401 -15.55635,-7.615 -12.6612,-6.46698 -29.96313,-13.74283 -39.76607,-16.72253 -13.20812,-4.01474 -40.99075,-5.17748 -54.76702,-2.29209 -11.79388,2.47019 -22.49211,6.33443 -34.83228,12.58156 -6.39765,3.23877 -11.96612,5.87604 -12.37437,5.86059 -1.62918,-0.0616 6.87409,-6.89259 16.22829,-13.03674 27.27219,-17.91329 42.76667,-24.30488 67.88225,-28.00194 11.13455,-1.63902 20.16236,-1.71759 31.25325,-0.27198 14.87785,1.93921 27.69682,5.5784 40.66738,11.54509 18.47073,8.49687 26.73476,19.98045 22.18531,30.82843 -1.55593,3.71007 -3.01719,5.263 -6.4247,6.82773 -3.36108,1.54341 -10.78711,1.6955 -14.49569,0.29688 z"
       id="path5027"
       transform="scale(0.26458333)" /></g><g
     aria-label="RUBY PLASTIC"
     transform="matrix(1.937431,0,0,1.937431,-42.736826,-225.33077)"
     id="text564"
     style="font-size:9.87778px;font-family:Audiowide;-inkscape-font-specification:'Audiowide, Normal';white-space:pre;inline-size:337.446;fill:#241c1c;stroke-width:0.414999"><path
       d="m 47.643752,142.76525 q 0,0.42926 -0.106109,0.76688 -0.106109,0.33762 -0.289388,0.59807 -0.178456,0.25562 -0.41479,0.4389 -0.236334,0.18328 -0.496783,0.30386 -0.255626,0.11575 -0.520898,0.16881 -0.26045,0.053 -0.49196,0.053 l 2.618962,2.26205 h -1.9389 l -2.614139,-2.26205 h -0.901926 v -1.25401 h 2.836003 q 0.236333,-0.0193 0.429259,-0.0965 0.197748,-0.082 0.337619,-0.21704 0.144694,-0.13504 0.221864,-0.32315 0.07717,-0.19292 0.07717,-0.4389 v -0.791 q 0,-0.1061 -0.02894,-0.15916 -0.02412,-0.0579 -0.06752,-0.082 -0.03858,-0.0289 -0.08682,-0.0338 -0.04341,-0.005 -0.08199,-0.005 h -4.138249 v 5.66236 H 40.7322 v -6.28454 q 0,-0.13023 0.04823,-0.24598 0.04823,-0.11576 0.130225,-0.20257 0.08682,-0.0868 0.202571,-0.13505 0.115755,-0.0482 0.250803,-0.0482 h 4.760434 q 0.419613,0 0.709001,0.15434 0.289388,0.14951 0.467844,0.38103 0.183279,0.22668 0.260449,0.49196 0.08199,0.26527 0.08199,0.49678 z"
       style="stroke-width:0.415"
       id="path249" /><path
       d="m 55.679094,146.72504 q 0,0.13505 -0.04823,0.2508 -0.04823,0.11576 -0.135048,0.20258 -0.08682,0.082 -0.202572,0.13022 -0.115755,0.0482 -0.24598,0.0482 h -2.826357 q -0.40032,0 -0.810286,-0.0868 -0.409967,-0.0868 -0.795817,-0.26528 -0.381028,-0.18328 -0.718648,-0.46302 -0.337619,-0.27974 -0.593245,-0.66077 -0.250803,-0.38585 -0.395497,-0.87781 -0.144694,-0.49678 -0.144694,-1.1045 v -3.45818 h 1.254015 v 3.45818 q 0,0.53055 0.144694,0.89711 0.149517,0.36656 0.376204,0.61254 0.226688,0.24598 0.496783,0.38585 0.270096,0.13987 0.511253,0.20739 0.245979,0.0675 0.429259,0.0868 0.188102,0.0145 0.245979,0.0145 h 2.204173 v -5.66236 h 1.254015 z"
       style="stroke-width:0.415"
       id="path251" /><path
       d="m 64.037586,145.83759 q 0,0.23151 -0.08199,0.49678 -0.07717,0.26527 -0.26045,0.49196 -0.178456,0.22669 -0.467844,0.38103 -0.289388,0.14951 -0.709,0.14951 h -4.760434 q -0.135048,0 -0.250803,-0.0482 -0.115756,-0.0482 -0.202572,-0.13022 -0.08199,-0.0868 -0.130225,-0.20258 -0.04823,-0.11575 -0.04823,-0.2508 v -5.65271 q 0,-0.13023 0.04823,-0.24598 0.04823,-0.11576 0.130225,-0.20257 0.08682,-0.0868 0.202572,-0.13505 0.115755,-0.0482 0.250803,-0.0482 h 4.196127 q 0.23151,0 0.496783,0.082 0.265272,0.082 0.491959,0.26527 0.231511,0.17846 0.381028,0.46785 0.15434,0.28939 0.15434,0.709 v 0.23633 q 0,0.3328 -0.110932,0.71865 -0.110932,0.38103 -0.356912,0.72347 0.212218,0.13022 0.395497,0.3135 0.188103,0.18328 0.327973,0.42444 0.139871,0.24116 0.221865,0.54501 0.08199,0.30386 0.08199,0.67042 z m -1.254015,-0.24116 q 0,-0.24598 -0.07717,-0.43891 -0.07717,-0.19775 -0.217041,-0.33762 -0.139871,-0.13987 -0.33762,-0.21221 -0.197748,-0.0772 -0.443728,-0.0772 h -2.826357 v -1.26367 h 2.26205 q 0.24598,0 0.443728,-0.0723 0.197749,-0.0772 0.33762,-0.21704 0.139871,-0.13987 0.212218,-0.3328 0.07717,-0.19775 0.07717,-0.44373 v -0.23633 q 0,-0.2701 -0.260449,-0.2701 h -3.573943 v 4.40835 h 4.13825 q 0.03376,0 0.08199,-0.005 0.04823,-0.005 0.08682,-0.0289 0.03858,-0.0241 0.06752,-0.082 0.02894,-0.0579 0.02894,-0.15916 z"
       style="stroke-width:0.415"
       id="path253" /><path
       d="m 71.624377,142.7556 q 0,0.42926 -0.110932,0.76688 -0.106109,0.33762 -0.284565,0.59807 -0.178456,0.25563 -0.419612,0.4389 -0.236334,0.18328 -0.49196,0.30386 -0.255626,0.11576 -0.520899,0.16881 -0.260449,0.0531 -0.491959,0.0531 h -0.50643 v 2.27169 h -1.263661 v -2.27169 h -0.501606 q -0.23151,0 -0.496783,-0.0531 -0.260449,-0.053 -0.520898,-0.16881 -0.255626,-0.12058 -0.49196,-0.30386 -0.236334,-0.18327 -0.419613,-0.4389 -0.178456,-0.26045 -0.289388,-0.59807 -0.106109,-0.34244 -0.106109,-0.76688 v -2.3151 h 1.254015 v 2.3151 q 0,0.24598 0.07717,0.44373 0.07717,0.19293 0.217041,0.3328 0.139871,0.13987 0.33762,0.21704 0.202572,0.0723 0.448551,0.0723 h 2.262051 q 0.178456,-0.0289 0.366558,-0.0723 0.188102,-0.0482 0.342442,-0.15917 0.154341,-0.11093 0.255627,-0.30868 0.101285,-0.19774 0.101285,-0.52572 v -2.3151 h 1.254015 z"
       style="stroke-width:0.415"
       id="path255" /><path
       d="m 82.775464,143.33438 q 0,0.42926 -0.106109,0.76688 -0.106109,0.33762 -0.289388,0.59807 -0.178456,0.25562 -0.41479,0.4389 -0.236333,0.18328 -0.496783,0.29903 -0.255626,0.11576 -0.520898,0.16881 -0.260449,0.0531 -0.49196,0.0531 h -2.836003 v -1.25402 h 2.836003 q 0.241157,-0.0193 0.434082,-0.0965 0.197749,-0.082 0.33762,-0.21704 0.139871,-0.13505 0.217041,-0.32315 0.07717,-0.19293 0.07717,-0.43408 v -0.56913 q -0.02412,-0.23634 -0.101286,-0.43408 -0.07717,-0.19775 -0.212218,-0.33762 -0.130224,-0.13987 -0.318327,-0.21704 -0.188102,-0.082 -0.434082,-0.082 h -2.826357 q -0.250803,0 -0.381027,0.13023 -0.130225,0.13022 -0.130225,0.3762 v 5.15593 h -1.254015 v -5.15593 q 0,-0.48231 0.173633,-0.81993 0.178456,-0.33762 0.438905,-0.54502 0.265272,-0.20739 0.573953,-0.29903 0.308681,-0.0965 0.56913,-0.0965 h 2.836003 q 0.424436,0 0.762055,0.11093 0.33762,0.10611 0.593246,0.28939 0.260449,0.17845 0.438905,0.41479 0.183279,0.23633 0.299035,0.49678 0.120578,0.25563 0.173632,0.5209 0.05306,0.26045 0.05306,0.49196 z"
       style="stroke-width:0.415"
       id="path257" /><path
       d="m 90.19827,147.35687 h -5.720238 q -0.135047,0 -0.250803,-0.0482 -0.115755,-0.0482 -0.202571,-0.13022 -0.08199,-0.0868 -0.130225,-0.20258 -0.04823,-0.11575 -0.04823,-0.2508 v -6.28454 h 1.254015 v 5.66236 h 5.098053 z"
       style="stroke-width:0.415"
       id="path259" /><path
       d="m 97.905641,147.35687 h -1.254015 v -1.69774 h -4.408345 v 1.69774 h -1.254015 v -3.45819 q 0,-0.75723 0.260449,-1.39388 0.260449,-0.63665 0.72347,-1.09485 0.463021,-0.4582 1.094852,-0.71383 0.631831,-0.25562 1.379417,-0.25562 h 2.826356 q 0.130225,0 0.24598,0.0482 0.115756,0.0482 0.202572,0.13505 0.08682,0.0868 0.135048,0.20257 0.04823,0.11575 0.04823,0.24598 z m -5.66236,-2.95176 h 4.408345 v -2.7106 h -2.204172 q -0.05788,0 -0.24598,0.0193 -0.183279,0.0145 -0.429259,0.082 -0.241157,0.0675 -0.511253,0.20739 -0.270095,0.13987 -0.496783,0.38585 -0.226687,0.24598 -0.376204,0.61737 -0.144694,0.36655 -0.144694,0.89227 z"
       style="stroke-width:0.415"
       id="path261" /><path
       d="m 106.00851,145.32151 q 0,0.37138 -0.0965,0.67042 -0.0916,0.29421 -0.24598,0.52089 -0.15434,0.22669 -0.36173,0.38585 -0.2074,0.15917 -0.42926,0.26045 -0.22186,0.10129 -0.45337,0.14952 -0.22669,0.0482 -0.42926,0.0482 h -4.837607 v -1.25401 h 4.837607 q 0.36173,0 0.55948,-0.21222 0.20257,-0.21222 0.20257,-0.56913 0,-0.17363 -0.053,-0.31833 -0.0531,-0.14469 -0.15434,-0.2508 -0.0965,-0.10611 -0.24116,-0.16399 -0.13987,-0.0579 -0.3135,-0.0579 h -2.88424 q -0.30386,0 -0.65594,-0.10611 -0.35209,-0.11094 -0.655951,-0.35209 -0.299034,-0.24116 -0.501606,-0.63183 -0.197748,-0.39068 -0.197748,-0.95498 0,-0.56431 0.197748,-0.95016 0.202572,-0.39067 0.501606,-0.63183 0.303861,-0.24598 0.655951,-0.35209 0.35208,-0.11093 0.65594,-0.11093 h 4.26848 v 1.25401 h -4.26848 q -0.35691,0 -0.55948,0.21704 -0.19775,0.21704 -0.19775,0.57396 0,0.36173 0.19775,0.57395 0.20257,0.20739 0.55948,0.20739 h 2.88424 0.01 q 0.20257,0.005 0.42926,0.0579 0.22669,0.0482 0.44855,0.15434 0.22669,0.10611 0.42926,0.2701 0.20257,0.15916 0.35691,0.38585 0.15917,0.22669 0.25081,0.5209 0.0916,0.29421 0.0916,0.66559 z"
       style="stroke-width:0.415"
       id="path263" /><path
       d="m 113.22874,141.69451 h -2.76366 v 5.66236 h -1.25401 v -5.66236 h -2.76848 v -1.25401 h 6.78615 z"
       style="stroke-width:0.415"
       id="path265" /><path
       d="m 115.41362,147.35687 h -1.25402 v -6.91637 h 1.25402 z"
       style="stroke-width:0.415"
       id="path267" /><path
       d="m 123.07276,147.35687 h -4.5241 q -0.17364,0 -0.37621,-0.0386 -0.19775,-0.0434 -0.3955,-0.13023 -0.19292,-0.0868 -0.37138,-0.22186 -0.17845,-0.13987 -0.31832,-0.3328 -0.13505,-0.19775 -0.21705,-0.45337 -0.082,-0.26045 -0.082,-0.5836 v -3.39549 q 0,-0.17363 0.0386,-0.37138 0.0434,-0.20257 0.13022,-0.3955 0.0868,-0.19775 0.22669,-0.3762 0.13987,-0.17846 0.3328,-0.31351 0.19774,-0.13987 0.45337,-0.22186 0.25563,-0.082 0.57878,-0.082 h 4.5241 v 1.25401 h -4.5241 q -0.24598,0 -0.37621,0.13023 -0.13022,0.13022 -0.13022,0.38585 v 3.38584 q 0,0.24116 0.13022,0.3762 0.13505,0.13023 0.37621,0.13023 h 4.5241 z"
       style="stroke-width:0.415"
       id="path269" /></g></svg>
