<?xml version="1.0" encoding="UTF-8" standalone="no"?>
<!-- Created with Inkscape (http://www.inkscape.org/) -->

<svg
   width="210mm"
   height="297mm"
   viewBox="0 0 210 297"
   version="1.1"
   id="svg185"
   xml:space="preserve"
   sodipodi:docname="RUBY bbrrr.svg"
   xmlns:inkscape="http://www.inkscape.org/namespaces/inkscape"
   xmlns:sodipodi="http://sodipodi.sourceforge.net/DTD/sodipodi-0.dtd"
   xmlns="http://www.w3.org/2000/svg"
   xmlns:svg="http://www.w3.org/2000/svg"><sodipodi:namedview
     id="namedview187"
     pagecolor="#ffffff"
     bordercolor="#000000"
     borderopacity="0.25"
     inkscape:showpageshadow="2"
     inkscape:pageopacity="0.0"
     inkscape:pagecheckerboard="0"
     inkscape:deskcolor="#d1d1d1"
     inkscape:document-units="mm"
     showgrid="false"
     inkscape:zoom="0.70710678"
     inkscape:cx="367.69552"
     inkscape:cy="526.79455"
     inkscape:window-width="1600"
     inkscape:window-height="838"
     inkscape:window-x="-8"
     inkscape:window-y="-8"
     inkscape:window-maximized="1"
     inkscape:current-layer="layer1" /><defs
     id="defs182" /><g
     inkscape:label="Layer 1"
     inkscape:groupmode="layer"
     id="layer1"><path
       style="opacity:0;fill:#ff0000;stroke-width:2.2182"
       d="m 342.94679,434.0786 c -25.67986,-5.5353 -56.56854,-31.61884 -56.56854,-47.76856 0,-9.23133 8.29363,-13.83992 14.99071,-8.33002 1.63344,1.34388 5.88646,6.60105 9.45116,11.68259 18.49295,26.36202 37.83053,39.94007 59.49639,41.77589 4.781,0.40512 11.55651,1.13678 15.05668,1.62593 l 6.36397,0.88936 -6.36397,1.06072 c -10.21232,1.70215 -32.46504,1.21126 -42.4264,-0.93591 z"
       id="path4975"
       transform="scale(0.26458333)" /><path
       style="opacity:0;fill:#ff0000;stroke-width:2.2182"
       d="m 342.94679,434.0786 c -25.67986,-5.5353 -56.56854,-31.61884 -56.56854,-47.76856 0,-9.23133 8.29363,-13.83992 14.99071,-8.33002 1.63344,1.34388 5.88646,6.60105 9.45116,11.68259 18.49295,26.36202 37.83053,39.94007 59.49639,41.77589 4.781,0.40512 11.55651,1.13678 15.05668,1.62593 l 6.36397,0.88936 -6.36397,1.06072 c -10.21232,1.70215 -32.46504,1.21126 -42.4264,-0.93591 z"
       id="path4977"
       transform="scale(0.26458333)" /><path
       style="opacity:0;fill:#ff0000;stroke-width:2.2182"
       d="m 342.94679,434.0786 c -25.67986,-5.5353 -56.56854,-31.61884 -56.56854,-47.76856 0,-9.23133 8.29363,-13.83992 14.99071,-8.33002 1.63344,1.34388 5.88646,6.60105 9.45116,11.68259 18.49295,26.36202 37.83053,39.94007 59.49639,41.77589 4.781,0.40512 11.55651,1.13678 15.05668,1.62593 l 6.36397,0.88936 -6.36397,1.06072 c -10.21232,1.70215 -32.46504,1.21126 -42.4264,-0.93591 z"
       id="path4979"
       transform="scale(0.26458333)" /><path
       style="opacity:0;fill:#ff0000;stroke-width:0.277275"
       d="m 358.41475,436.5441 c -5.06579,-0.15342 -10.2813,-0.55188 -12.81631,-0.97915 -5.9006,-0.99453 -15.03535,-4.05975 -21.56676,-7.23685 -10.20644,-4.96476 -20.02782,-12.84817 -29.61912,-23.77463 -5.33191,-6.07414 -8.55053,-11.89368 -9.18549,-16.60811 -0.49156,-3.64984 0.91127,-8.03431 3.34293,-10.44811 1.81181,-1.79852 3.61002,-2.46549 6.64708,-2.46549 3.43815,0 5.32015,0.81337 7.97016,3.44458 2.10737,2.09242 2.89148,3.11441 7.05468,9.19495 1.73079,2.52791 4.16365,5.94854 5.40634,7.6014 15.38426,20.46212 32.04145,31.96477 51.42855,35.51407 4.02216,0.73635 6.91657,0.99636 13.00777,1.16848 5.72876,0.16187 8.22836,0.34053 10.12249,0.72348 2.5949,0.52464 3.10488,1.45711 1.1613,2.12339 -3.76779,1.29164 -19.81485,2.13992 -32.95362,1.74199 z"
       id="path4981"
       transform="scale(0.26458333)" /><path
       style="opacity:1;fill:#ff0000;stroke-width:1.1091"
       d="m 351.78562,435.88992 c -5.77353,-0.4229 -9.36505,-1.18318 -16.15036,-3.41882 -14.6055,-4.81226 -25.15217,-11.6073 -36.59707,-23.57888 -12.3329,-12.90044 -15.70555,-20.49384 -12.36738,-27.84475 3.03962,-6.69348 10.60378,-7.76966 16.19418,-2.304 1.22485,1.19751 5.17586,6.35018 8.78003,11.45037 7.22535,10.22446 18.06427,21.9879 25.2416,27.39461 12.95418,9.75842 28.66351,14.79895 46.14244,14.80535 2.98873,10e-4 6.32981,0.35296 7.42463,0.78192 l 1.99057,0.77993 -1.69456,0.64981 c -2.03017,0.77851 -19.62817,2.04934 -26.58971,1.92015 -2.72236,-0.0505 -8.29083,-0.33658 -12.37437,-0.63569 z"
       id="path5017"
       transform="scale(0.26458333)" /><path
       style="opacity:1;fill:#ff0000;stroke-width:1.1091"
       d="m 356.67448,419.56301 c -19.02229,-13.05727 -31.15564,-26.07179 -39.5596,-42.43258 -12.57367,-24.47834 -14.86098,-58.82415 -4.68902,-70.40937 2.63523,-3.00136 5.74722,-4.43291 9.63653,-4.43291 2.2572,0 3.41227,0.50879 5.5599,2.44904 4.55273,4.11312 5.13639,8.23112 3.31094,23.36036 -1.35098,11.19685 -1.35608,30.00802 -0.0104,38.30511 1.985,12.23891 6.48217,23.63017 13.6309,34.52688 1.786,2.72236 7.32578,9.03003 12.31064,14.01704 4.98486,4.987 9.06338,9.20313 9.06338,9.36916 0,1.107 -2.84681,-0.3552 -9.25328,-4.75273 z"
       id="path5019"
       transform="scale(0.26458333)" /><path
       style="opacity:1;fill:#000000;stroke-width:1.1091"
       d="m 347.3549,393.02164 c -1.89813,-3.32406 -6.93839,-24.60267 -8.34389,-35.22561 -1.20153,-9.08133 -0.46244,-28.48221 1.4196,-37.26382 4.57963,-21.36859 16.62088,-42.48808 32.91482,-57.73027 6.39397,-5.98124 9.3151,-7.36397 16.2704,-7.70167 4.80922,-0.2335 6.00737,-0.0541 7.99607,1.19735 2.59281,1.6316 5.0479,6.27167 5.06594,9.57453 0.0312,5.71753 -0.94025,7.05452 -16.13091,22.20011 -20.03565,19.97619 -27.35965,29.95069 -33.63874,45.81235 -6.05324,15.29115 -7.51267,27.05704 -5.7341,46.22823 1.08101,11.65207 1.12169,14.5565 0.18081,12.9088 z"
       id="path5021"
       transform="scale(0.26458333)" /><path
       style="opacity:1;fill:#000000;stroke-width:1.1091"
       d="m 346.77986,391.65845 c -1.54402,-3.92907 -3.44894,-11.14453 -5.743,-21.75339 -2.22331,-10.28167 -2.31193,-11.29577 -2.29395,-26.25117 0.0161,-13.37594 0.23829,-16.56611 1.58547,-22.76064 4.77026,-21.93445 16.58286,-42.71792 33.01705,-58.09131 6.39397,-5.98124 9.3151,-7.36397 16.2704,-7.70167 4.76233,-0.23123 6.01575,-0.0486 7.92643,1.15501 2.70665,1.70499 5.15658,6.18142 5.15111,9.41192 -0.0102,5.98443 -0.93356,7.29282 -15.15398,21.47172 -18.59693,18.54264 -24.91758,26.45721 -31.09489,38.93633 -9.07171,18.32622 -11.5224,34.20387 -8.96762,58.09982 0.94839,8.87061 0.73757,11.13399 -0.69702,7.48338 z"
       id="path5023"
       transform="scale(0.26458333)" /><path
       style="opacity:1;fill:#000000;stroke-width:1.1091"
       d="m 357.17877,354.2605 c 1.6272,-7.42344 10.58504,-27.61713 17.10948,-38.56996 5.89476,-9.89579 10.50375,-15.97154 18.14634,-23.92122 16.59884,-17.26582 35.92934,-28.11042 60.1251,-33.73081 6.85159,-1.59154 10.23383,-1.97772 17.66632,-2.01712 8.17634,-0.0434 9.51412,0.12338 12.10317,1.50846 9.03854,4.83538 12.58395,12.86604 8.57608,19.42556 -3.661,5.99179 -6.67847,7.06084 -27.68928,9.80993 -18.85348,2.46682 -29.16079,4.61717 -41.07323,8.56886 -24.68746,8.18951 -43.47284,24.32789 -58.45604,50.21915 -2.46206,4.25448 -5.03817,8.43135 -5.7247,9.28194 l -1.24824,1.54653 z"
       id="path5025"
       transform="scale(0.26458333)" /><path
       style="opacity:1;fill:#000000;stroke-width:1.1091"
       d="m 534.92628,347.21709 c -1.36118,-0.51335 -8.36154,-3.9401 -15.55635,-7.615 -12.6612,-6.46698 -29.96313,-13.74283 -39.76607,-16.72253 -13.20812,-4.01474 -40.99075,-5.17748 -54.76702,-2.29209 -11.79388,2.47019 -22.49211,6.33443 -34.83228,12.58156 -6.39765,3.23877 -11.96612,5.87604 -12.37437,5.86059 -1.62918,-0.0616 6.87409,-6.89259 16.22829,-13.03674 27.27219,-17.91329 42.76667,-24.30488 67.88225,-28.00194 11.13455,-1.63902 20.16236,-1.71759 31.25325,-0.27198 14.87785,1.93921 27.69682,5.5784 40.66738,11.54509 18.47073,8.49687 26.73476,19.98045 22.18531,30.82843 -1.55593,3.71007 -3.01719,5.263 -6.4247,6.82773 -3.36108,1.54341 -10.78711,1.6955 -14.49569,0.29688 z"
       id="path5027"
       transform="scale(0.26458333)" /></g></svg>
